<svg width="457" height="201" viewBox="0 0 457 201" fill="none" xmlns="http://www.w3.org/2000/svg">
<path d="M187.865 127.263V51.3334L301.32 51.3334V129.433" stroke="#E65907" stroke-width="4"/>
<line y1="-2" x2="72.9509" y2="-2" transform="matrix(-0.777609 0.628748 -0.658311 -0.752746 321.948 109.598)" stroke="#009AFF" stroke-width="4"/>
<line y1="-2" x2="72.9509" y2="-2" transform="matrix(0.777609 0.628748 0.658311 -0.752746 168.527 109.598)" stroke="#009AFF" stroke-width="4"/>
<path d="M185.287 109.598H165.948V201.333H324.527V109.598H303.899" stroke="#009AFF" stroke-width="4"/>
<path d="M168.527 198.854L245.238 140.59L321.948 198.854" stroke="#4DD6CB" stroke-width="4"/>
<line x1="209.783" y1="80.3252" x2="278.114" y2="80.3252" stroke="#E65907" stroke-width="4"/>
<line x1="209.783" y1="100.16" x2="251.039" y2="100.16" stroke="#009AFF" stroke-width="4"/>
<path d="M389.088 47.5734L387.118 47.2263L390.254 49.198L389.088 47.5734ZM391.478 22.4862L387.118 47.2263L391.057 47.9205L395.417 23.1805L391.478 22.4862ZM390.254 49.198L412.874 32.958L410.541 29.7087L387.921 45.9487L390.254 49.198Z" fill="#009AFF"/>
<path d="M426.788 53.9534L425.178 55.1399L428.535 54.9264L426.788 53.9534ZM455.208 2.91345L456.955 3.88642L454.119 1.23607L455.208 2.91345ZM410.196 34.8081L425.178 55.1399L428.398 52.7671L413.417 32.4353L410.196 34.8081ZM428.535 54.9264L456.955 3.88642L453.46 1.94048L425.04 52.9805L428.535 54.9264ZM413.417 32.4353L456.297 4.59084L454.119 1.23607L411.238 29.0805L413.417 32.4353ZM413.417 32.4353L411.238 29.0805C409.308 30.3342 408.831 32.9548 410.196 34.8081L413.417 32.4353Z" fill="#E65907"/>
<path d="M456.34 2L369.948 18.5734L394.888 22.0534L456.34 2Z" stroke="#4DD6CB" stroke-width="4"/>
<line x1="23.5594" y1="166.03" x2="41.4632" y2="129.681" stroke="#4DD6CB" stroke-width="4"/>
<line x1="103.505" y1="131.017" x2="64.5116" y2="123.196" stroke="#4DD6CB" stroke-width="4"/>
<path d="M84.96 85.1115L57.4292 134.386L2.70509 120.56" stroke="#E65907" stroke-width="4"/>
<path d="M23.315 167.618L2.62816 119.615L84.848 84.1821L105.535 132.184L32.6514 163.594L23.315 167.618Z" stroke="#009AFF" stroke-width="4"/>
</svg>
