<svg width="40" height="40" viewBox="0 0 40 40" fill="none" xmlns="http://www.w3.org/2000/svg">
<path d="M5.16772 28.8874V7.69458H13.2229C16.4189 7.69458 18.3993 9.68018 18.3993 12.5126" stroke="#009AFF" stroke-width="3" stroke-miterlimit="10" stroke-linecap="square"/>
<path d="M18.4001 33.7056C18.4001 30.872 20.3813 28.8872 23.5773 28.8872H26.2237" stroke="#4DD6CB" stroke-width="3" stroke-miterlimit="10"/>
<path d="M31.6333 17.541V7.69458H23.5781C20.3821 7.69458 18.4001 9.68018 18.4001 12.5126V33.7058" stroke="#4DD6CB" stroke-width="3" stroke-miterlimit="10"/>
<path d="M33.5487 17.2319H27.5063C27.1662 17.2319 26.84 17.367 26.5995 17.6075C26.359 17.848 26.2239 18.1742 26.2239 18.5143V30.8275C26.2239 31.167 26.3587 31.4926 26.5988 31.7326C26.8388 31.9727 27.1644 32.1075 27.5039 32.1075H33.5523C33.8918 32.1075 34.2173 31.9727 34.4574 31.7326C34.6974 31.4926 34.8323 31.167 34.8323 30.8275V18.5143C34.8322 18.3458 34.799 18.179 34.7344 18.0234C34.6699 17.8677 34.5753 17.7263 34.4561 17.6072C34.3369 17.4881 34.1954 17.3937 34.0397 17.3293C33.884 17.2649 33.7172 17.2318 33.5487 17.2319V17.2319Z" stroke="#E65907" stroke-width="3" stroke-miterlimit="10" stroke-linecap="square"/>
<path d="M26.2239 30.5102V18.8274" stroke="#009AFF" stroke-width="3" stroke-miterlimit="10"/>
<path d="M34.8323 18.8274V30.5102" stroke="#009AFF" stroke-width="3" stroke-miterlimit="10"/>
<path d="M18.3993 33.7056C18.3993 30.872 16.4181 28.8872 13.2221 28.8872H5.16772" stroke="#009AFF" stroke-width="3" stroke-miterlimit="10"/>
</svg>
