<svg width="436" height="436" viewBox="0 0 436 436" fill="none" xmlns="http://www.w3.org/2000/svg">
<path d="M218 436C174.883 436 132.735 423.214 96.8852 399.26C61.0352 375.306 33.0943 341.259 16.5944 301.425C0.0944611 261.59 -4.22268 217.758 4.18891 175.47C12.6005 133.182 33.3621 94.3389 63.85 63.8511C94.3379 33.3633 133.182 12.6005 175.47 4.1889C217.758 -4.22267 261.591 0.0944598 301.426 16.5943C341.26 33.0942 375.307 61.0364 399.261 96.8862C423.215 132.736 436 174.883 436 217.999C435.943 275.799 412.957 331.215 372.087 372.085C331.216 412.956 275.8 435.943 218 436ZM218 112.558C197.188 112.558 176.844 118.729 159.539 130.291C142.235 141.854 128.747 158.289 120.783 177.516C112.818 196.744 110.734 217.901 114.795 238.313C118.855 258.725 128.877 277.475 143.593 292.191C158.31 306.907 177.06 316.928 197.471 320.988C217.883 325.049 239.041 322.965 258.268 315C277.496 307.036 293.93 293.55 305.492 276.245C317.055 258.941 323.227 238.597 323.227 217.785C323.113 189.932 311.984 163.255 292.268 143.58C272.553 123.905 245.853 112.615 218 112.558Z" fill="#4DD6CB"/>
</svg>
