<svg width="24" height="24" viewBox="0 0 24 24" fill="none" xmlns="http://www.w3.org/2000/svg">
<path d="M8.45929 11.29L14.1193 5.64004C14.2122 5.54631 14.3228 5.47191 14.4447 5.42115C14.5666 5.37038 14.6973 5.34424 14.8293 5.34424C14.9613 5.34424 15.092 5.37038 15.2139 5.42115C15.3357 5.47191 15.4463 5.54631 15.5393 5.64004C15.7255 5.8274 15.8301 6.08085 15.8301 6.34504C15.8301 6.60922 15.7255 6.86267 15.5393 7.05004L10.5893 12.05L15.5393 17C15.7255 17.1874 15.8301 17.4409 15.8301 17.705C15.8301 17.9692 15.7255 18.2227 15.5393 18.41C15.4467 18.5045 15.3362 18.5797 15.2144 18.6312C15.0925 18.6827 14.9616 18.7095 14.8293 18.71C14.697 18.7095 14.5661 18.6827 14.4442 18.6312C14.3223 18.5797 14.2119 18.5045 14.1193 18.41L8.45929 12.76C8.35778 12.6664 8.27677 12.5527 8.22136 12.4262C8.16596 12.2997 8.13735 12.1631 8.13735 12.025C8.13735 11.8869 8.16596 11.7503 8.22136 11.6238C8.27677 11.4973 8.35778 11.3837 8.45929 11.29Z" fill="#0F0F0F"/>
</svg>
