<svg width="439" height="431" viewBox="0 0 439 431" fill="none" xmlns="http://www.w3.org/2000/svg">
<path d="M219.501 431C176.088 431 133.649 418.361 97.5529 394.681C61.4563 371.002 33.3219 337.345 16.7085 297.968C0.0951101 258.591 -4.25172 215.26 4.21772 173.458C12.6872 131.655 33.5929 93.2571 64.2905 63.1189C94.9881 32.9807 134.1 12.456 176.679 4.14086C219.257 -4.17424 263.39 0.0933769 303.499 16.404C343.607 32.7147 377.888 60.3364 402.007 95.7752C426.126 131.214 439 172.877 439 215.499C439 243.799 433.322 271.822 422.291 297.968C411.26 324.114 395.093 347.87 374.711 367.881C354.328 387.892 330.13 403.766 303.499 414.596C276.868 425.426 248.326 431 219.501 431V431ZM219.501 111.267C198.546 111.267 178.061 117.367 160.638 128.797C143.214 140.227 129.634 156.474 121.615 175.481C113.596 194.488 111.497 215.402 115.585 235.58C119.674 255.758 129.765 274.293 144.582 288.84C159.4 303.388 178.279 313.294 198.831 317.307C219.383 321.321 240.686 319.261 260.046 311.388C279.406 303.515 295.953 290.183 307.595 273.077C319.237 255.971 325.451 235.86 325.451 215.287C325.336 187.754 314.129 161.382 294.278 141.933C274.427 122.484 247.545 111.537 219.501 111.481V111.267Z" fill="#009AFF"/>
</svg>
