<svg width="197" height="48" viewBox="0 0 197 48" fill="none" xmlns="http://www.w3.org/2000/svg">
<g clip-path="url(#clip0_2630_38284)">
<path d="M150.133 36.5475H148.345V25.8237H153.31L152.714 27.611H150.133V36.5475Z" fill="#0070BA"/>
<path d="M192.234 11.7236V22.2488H196.801V20.6601H194.021V17.4827H196.404V15.894H194.021V13.3123H196.404L197 11.7236H192.234Z" fill="#0070BA"/>
<path d="M88.9677 1.19873H87.7761V47.0727H88.9677V1.19873Z" fill="#0070BA"/>
<path d="M62.7539 11.7236H60.768C58.9807 11.7236 58.9807 13.1138 58.9807 13.9081V21.8517C58.9807 22.646 59.1793 24.0361 60.768 24.0361H62.7539C64.5412 24.0361 64.5412 22.646 64.5412 21.8517V13.9081C64.5412 13.1138 64.3426 11.7236 62.7539 11.7236ZM61.7609 22.646C61.5624 22.646 61.1652 22.4474 61.1652 22.0502V13.7095C61.1652 13.5109 61.3638 13.3123 61.7609 13.3123C61.9595 13.3123 62.3567 13.5109 62.3567 13.7095V22.0502C62.3567 22.4474 61.9595 22.646 61.7609 22.646Z" fill="#0070BA"/>
<path d="M25.0225 11.7236H29.59V13.1138H27.4055V24.0361H25.0225V11.7236Z" fill="#0070BA"/>
<path d="M32.7673 19.4689L33.1645 13.3127H33.3631L33.7602 19.4689H32.7673ZM29.9871 24.0365H32.3701L32.5687 20.6605H33.7602L33.9588 24.0365H36.3419L35.1504 11.5254H31.3772L29.9871 24.0365Z" fill="#0070BA"/>
<path d="M39.7178 19.6675V22.0506C39.7178 22.4478 39.9164 22.4478 40.115 22.4478C40.3135 22.4478 40.5121 22.2492 40.5121 22.0506V19.0718C40.5121 18.6746 40.5121 18.2774 39.5192 18.2774H38.5262V16.8873H39.5192C40.115 16.8873 40.5121 16.6887 40.5121 15.8943V13.5113C40.5121 13.3127 40.3135 13.1141 40.115 13.1141C39.9164 13.1141 39.7178 13.1141 39.7178 13.5113V15.4972H37.3347V13.7099C37.3347 12.9155 37.5333 11.5254 39.122 11.5254H41.1079C42.8952 11.5254 42.8952 12.9155 42.8952 13.7099V15.6958C42.8952 17.0859 41.9023 17.483 41.3065 17.483V17.6816C42.8952 17.6816 42.8952 18.8732 42.8952 19.4689V22.0506C42.8952 22.8449 42.8952 24.2351 41.1079 24.2351H39.122C37.3347 24.2351 37.3347 22.8449 37.3347 22.0506V19.8661H39.7178V19.6675Z" fill="#0070BA"/>
<path d="M44.4836 11.7236H50.2427V24.0361H47.8597V13.1138H46.8667V24.0361H44.4836V11.7236Z" fill="#0070BA"/>
<path d="M54.4134 18.4756V13.1138H55.0092C55.2078 13.1138 55.4064 13.3123 55.4064 13.7095V17.6813C55.4064 18.0785 55.2078 18.2771 55.0092 18.2771H54.4134V18.4756ZM51.8318 24.0361H54.2149V19.8658H55.605C57.3923 19.8658 57.5909 18.4756 57.5909 17.6813V13.9081C57.5909 13.1138 57.3923 11.7236 55.605 11.7236H51.8318V24.0361Z" fill="#0070BA"/>
<path d="M72.2862 11.7236H75.4636V24.0361H72.882V16.2912L71.6905 24.0361H69.7046L68.513 16.2912H68.3145V24.0361H65.9314V11.7236H69.1088L70.6975 20.4615L72.2862 11.7236Z" fill="#0070BA"/>
<path d="M20.0576 7.35483C19.2632 3.97883 17.2773 1.39718 17.0787 1C16.6816 1.59577 15.0929 3.97883 14.2985 6.56048C13.5041 9.53931 13.3056 12.121 13.7027 14.7026C13.9013 17.2843 15.0929 19.8659 15.0929 19.8659C15.6886 21.256 16.483 22.6462 17.0787 23.4405C17.8731 22.4476 19.859 19.2701 20.4548 15.0998C20.8519 12.7167 20.8519 10.5323 20.0576 7.35483ZM17.2773 22.6462C16.8802 22.0504 16.2844 20.6603 16.2844 18.4758C16.2844 16.4899 17.0787 14.7026 17.2773 14.504C17.4759 14.9012 18.2703 16.2913 18.2703 18.4758C18.2703 20.2631 17.4759 21.8518 17.2773 22.6462ZM19.859 12.9153C19.859 14.1068 19.6604 15.497 19.4618 16.2913C19.4618 14.9012 19.2632 12.9153 19.0646 11.5252C18.6675 9.93649 17.8731 7.55342 17.0787 6.36189C16.483 7.55342 15.49 9.7379 15.0929 11.5252C14.6957 13.5111 14.6957 15.6956 14.6957 16.4899C14.4971 15.8941 14.2985 13.9083 14.2985 11.7238C14.2985 9.93649 14.6957 8.34778 14.8943 7.35483C15.6886 4.57459 16.6816 2.98589 16.8802 2.58871C17.0787 2.7873 18.2703 4.97177 18.866 7.15625C19.859 9.53931 19.859 11.7238 19.859 12.9153Z" fill="#0070BA"/>
<path d="M12.5111 24.0363V28.008C13.9012 26.6179 16.0857 26.6179 17.4758 28.008C18.8659 29.3982 18.8659 31.5826 17.4758 32.9728C16.0857 34.3629 14.2984 34.9586 12.5111 34.9586C10.7238 34.9586 8.93649 34.3629 7.54637 32.9728C5.1633 30.5897 4.76613 26.8165 6.75201 24.2349C6.9506 23.8377 7.34778 23.4405 7.54637 23.2419C8.93649 21.8518 10.7238 21.256 12.5111 21.256V11.9224C5.56048 11.9224 0 17.4828 0 24.4334C0 31.1855 5.56048 36.7459 12.5111 36.7459C16.0857 36.7459 19.4617 35.1572 21.6462 32.7742V24.2349H12.5111V24.0363Z" fill="#0070BA"/>
<path d="M71.4922 32.5755H71.2936V33.9656H71.4922C71.6908 33.9656 71.8894 33.9656 71.8894 33.5684V32.9727C71.8894 32.7741 71.6908 32.5755 71.4922 32.5755ZM51.0376 30.9868L50.839 33.5684H51.0376C51.2362 33.5684 51.4347 33.5684 51.4347 33.1713V31.384C51.4347 30.9868 51.2362 30.9868 51.0376 30.9868ZM49.0517 31.384V33.1713C49.0517 33.5684 49.2503 33.5684 49.4489 33.5684H49.6474V30.9868H49.4489C49.0517 30.9868 49.0517 30.9868 49.0517 31.384ZM75.464 28.2065H25.0225V36.5473H75.2654V28.2065H75.464ZM30.5829 34.9586H29.3914V32.5755H28.7956V34.9586H27.6041V29.5967H28.7956V31.5826H29.3914V29.5967H30.5829V34.9586ZM41.1081 30.5896H39.3208V31.5826H40.9095V32.5755H39.3208V33.767H41.1081V34.76H38.1293V29.3981H41.1081V30.5896ZM52.6263 33.1713C52.6263 34.3628 52.0305 34.5614 50.839 34.5614V35.1571H49.6474V34.5614C48.4559 34.5614 47.8601 34.3628 47.8601 33.1713V31.384C47.8601 30.1924 48.4559 29.9938 49.6474 29.9938V29.5967H50.839V29.9938C52.0305 29.9938 52.6263 30.1924 52.6263 31.384V33.1713ZM62.5557 30.5896H61.5628V34.9586H60.3712V30.5896H59.3783V29.5967H62.5557V30.5896ZM73.0809 33.5684C73.0809 34.76 72.4851 34.9586 71.095 34.9586H69.9035V29.5967H71.095V31.5826H71.2936C72.4851 31.5826 73.0809 31.7811 73.0809 32.9727V33.5684Z" fill="#0070BA"/>
<path d="M165.027 11.7236H170.191V20.8587H171.184V24.2347H169.794L169.595 22.2488H164.63L164.432 24.2347H163.042V20.8587H163.836C164.233 20.6601 164.432 20.0644 164.63 19.27C164.63 17.8799 165.027 11.7236 165.027 11.7236ZM168.205 20.6601V13.1138H166.616C166.418 15.2982 166.219 17.6813 166.219 18.4756C166.219 19.27 166.219 20.0644 165.623 20.4615H168.205V20.6601Z" fill="#0070BA"/>
<path d="M162.247 25.8237C162.247 25.8237 164.233 25.8237 165.821 25.8237C167.212 25.8237 168.204 26.8167 168.204 28.2068C168.204 29.3983 168.204 30.1927 168.204 31.5828C168.204 32.9729 167.212 33.7673 166.02 33.7673C165.226 33.7673 164.233 33.7673 164.233 33.7673V36.5475H162.247V25.8237ZM164.034 32.1786C164.034 32.1786 164.63 32.1786 165.226 32.1786C165.821 32.1786 166.219 31.7814 166.219 31.1856C166.219 31.1856 166.219 29.0011 166.219 28.4054C166.219 27.8096 165.821 27.4124 165.226 27.4124H164.034V32.1786Z" fill="#0070BA"/>
<path d="M148.345 11.7236C148.345 11.7236 150.331 11.7236 151.92 11.7236C153.31 11.7236 154.303 12.7166 154.303 14.1067C154.303 15.2982 154.303 16.0926 154.303 17.4827C154.303 18.8728 153.31 19.6672 152.119 19.6672C151.324 19.6672 150.331 19.6672 150.331 19.6672V22.4474H148.345V11.7236ZM150.133 18.0785H151.324C151.92 18.0785 152.317 17.6813 152.317 17.0855C152.317 17.0855 152.317 14.901 152.317 14.3053C152.317 13.7095 151.92 13.3123 151.324 13.3123H150.133V18.0785Z" fill="#0070BA"/>
<path d="M155.693 14.5042C155.693 12.5183 157.282 11.5254 158.871 11.5254C160.658 11.5254 162.048 12.5183 162.048 14.5042C162.048 16.6887 162.048 17.6816 162.048 19.6675C162.048 21.852 160.261 22.6464 158.871 22.6464C157.481 22.6464 155.693 21.852 155.693 19.6675C155.693 17.2845 155.693 16.4901 155.693 14.5042ZM157.481 19.4689C157.481 20.4619 158.076 21.0576 158.871 21.0576C159.665 21.0576 160.261 20.4619 160.261 19.4689C160.261 18.476 160.261 15.4972 160.261 14.7028C160.261 13.9085 159.864 13.3127 158.871 13.3127C158.076 13.3127 157.481 13.9085 157.481 14.9014C157.481 15.2986 157.481 18.476 157.481 19.4689Z" fill="#0070BA"/>
<path d="M153.906 28.6038C153.906 26.6179 155.495 25.625 157.084 25.625C158.871 25.625 160.261 26.6179 160.261 28.6038C160.261 30.7883 160.261 31.7812 160.261 33.7671C160.261 35.9516 158.474 36.746 157.084 36.746C155.694 36.746 153.906 35.9516 153.906 33.7671C153.906 31.5827 153.906 30.5897 153.906 28.6038ZM155.694 33.5685C155.694 34.5615 156.289 35.1573 157.084 35.1573C157.878 35.1573 158.474 34.5615 158.474 33.5685C158.474 32.5756 158.474 29.5968 158.474 28.8024C158.474 28.0081 158.077 27.4123 157.084 27.4123C156.289 27.4123 155.694 28.0081 155.694 29.001C155.694 29.5968 155.694 32.7742 155.694 33.5685Z" fill="#0070BA"/>
<path d="M169.594 28.6038C169.594 26.6179 171.183 25.625 172.772 25.625C174.559 25.625 175.949 26.6179 175.949 28.6038C175.949 30.7883 175.949 31.7812 175.949 33.7671C175.949 35.9516 174.162 36.746 172.772 36.746C171.382 36.746 169.594 35.9516 169.594 33.7671C169.594 31.5827 169.594 30.5897 169.594 28.6038ZM171.58 33.5685C171.58 34.5615 172.176 35.1573 172.97 35.1573C173.765 35.1573 174.36 34.5615 174.36 33.5685C174.36 32.5756 174.36 29.5968 174.36 28.8024C174.36 28.0081 173.963 27.4123 172.97 27.4123C172.176 27.4123 171.58 28.0081 171.58 29.001C171.58 29.5968 171.58 32.7742 171.58 33.5685Z" fill="#0070BA"/>
<path d="M172.772 11.7236H174.559V15.894H176.942V11.7236H178.928V22.2488H176.942V17.4827H174.559V22.2488H172.772V11.7236Z" fill="#0070BA"/>
<path d="M181.113 22.2492V11.5254H182.9V15.1H184.29C185.68 15.1 186.673 16.0929 186.673 17.483C186.673 18.0788 186.673 19.2703 186.673 20.0647C186.673 21.4548 185.879 22.4478 184.29 22.4478C183.694 22.2492 181.113 22.2492 181.113 22.2492ZM183.099 20.6605C183.099 20.6605 183.694 20.6605 184.092 20.6605C184.687 20.6605 184.886 20.2633 184.886 19.8661V17.6816C184.886 17.0859 184.489 16.6887 183.893 16.6887C183.496 16.6887 182.9 16.6887 182.9 16.6887V20.6605H183.099Z" fill="#0070BA"/>
<path d="M189.851 11.7236H188.063V22.4474H189.851V11.7236Z" fill="#0070BA"/>
<path d="M138.416 34.1645L132.458 36.9447V14.9014L138.416 18.2774V34.1645Z" fill="#E65907"/>
<path d="M118.954 37.5404L129.877 34.363V9.73798L118.954 1.79443V37.5404Z" fill="#4DD6CB"/>
<path d="M101.677 31.98L109.025 33.9659V14.9014L101.677 18.476V31.98Z" fill="#009AFF"/>
<path d="M116.969 42.3066L111.607 39.7249V9.34085L116.969 5.96484V42.3066Z" fill="#0070BA"/>
<path d="M190.645 25.8237H188.064L185.879 36.5475H187.865L189.255 27.4124H189.454L190.844 36.5475H192.83L190.645 25.8237Z" fill="#0070BA"/>
<path d="M191.042 32.5757H187.468V34.1644H191.042V32.5757Z" fill="#0070BA"/>
<path d="M178.929 25.8237H184.092V34.9588H185.085V38.3348H183.695L183.496 36.3489H178.531L178.333 38.3348H176.943V34.9588H177.737C178.134 34.7602 178.333 34.1644 178.531 33.3701C178.531 32.1786 178.929 25.8237 178.929 25.8237ZM182.305 34.9588V27.4124H180.716C180.517 29.5969 180.319 31.98 180.319 32.7743C180.319 33.5687 180.319 34.363 179.723 34.7602H182.305V34.9588Z" fill="#0070BA"/>
</g>
<defs>
<clipPath id="clip0_2630_38284">
<rect width="197" height="48" fill="white"/>
</clipPath>
</defs>
</svg>
