<svg width="88" height="56" viewBox="0 0 88 56" fill="none" xmlns="http://www.w3.org/2000/svg">
<path d="M20.0876 47.5734L18.118 47.2263L21.2541 49.198L20.0876 47.5734ZM22.4781 22.4862L18.118 47.2263L22.0573 47.9205L26.4174 23.1805L22.4781 22.4862ZM21.2541 49.198L43.8741 32.958L41.5412 29.7087L18.9212 45.9487L21.2541 49.198Z" fill="#009AFF"/>
<path d="M57.7879 53.9534L56.1777 55.1399L59.5352 54.9264L57.7879 53.9534ZM86.2079 2.91345L87.9552 3.88642L85.1186 1.23607L86.2079 2.91345ZM41.1964 34.8081L56.1777 55.1399L59.398 52.7671L44.4166 32.4353L41.1964 34.8081ZM59.5352 54.9264L87.9552 3.88642L84.4605 1.94048L56.0405 52.9805L59.5352 54.9264ZM44.4166 32.4353L87.2971 4.59084L85.1186 1.23607L42.2382 29.0805L44.4166 32.4353ZM44.4166 32.4353L42.2382 29.0805C40.3075 30.3342 39.8308 32.9548 41.1964 34.8081L44.4166 32.4353Z" fill="#E65907"/>
<path d="M87.3397 2L0.947754 18.5734L25.8878 22.0534L87.3397 2Z" stroke="#4DD6CB" stroke-width="4"/>
</svg>
