<svg width="40" height="40" viewBox="0 0 40 40" fill="none" xmlns="http://www.w3.org/2000/svg">
<path d="M10.3316 33.2761C13.136 33.2761 15.4094 31.0027 15.4094 28.1983C15.4094 25.394 13.136 23.1206 10.3316 23.1206C7.52728 23.1206 5.25391 25.394 5.25391 28.1983C5.25391 31.0027 7.52728 33.2761 10.3316 33.2761Z" stroke="#009AFF" stroke-width="3" stroke-miterlimit="10"/>
<path d="M29.6659 33.2761C32.4702 33.2761 34.7436 31.0027 34.7436 28.1983C34.7436 25.394 32.4702 23.1206 29.6659 23.1206C26.8615 23.1206 24.5881 25.394 24.5881 28.1983C24.5881 31.0027 26.8615 33.2761 29.6659 33.2761Z" stroke="#009AFF" stroke-width="3" stroke-miterlimit="10"/>
<path d="M29.6648 19.0576V28.1983" stroke="#009AFF" stroke-width="3" stroke-miterlimit="10"/>
<path d="M19.8482 31.4604V24.3243L14.5818 19.0579L19.8482 13.7915L25.1146 19.0579H32.6521" stroke="#4DD6CB" stroke-width="3" stroke-miterlimit="10"/>
<path d="M26.4436 13.104C28.2054 13.104 29.6335 11.6758 29.6335 9.91406C29.6335 8.1523 28.2054 6.72412 26.4436 6.72412C24.6818 6.72412 23.2537 8.1523 23.2537 9.91406C23.2537 11.6758 24.6818 13.104 26.4436 13.104Z" stroke="#E65907" stroke-width="3" stroke-miterlimit="10"/>
</svg>
