<svg width="40" height="40" viewBox="0 0 40 40" fill="none" xmlns="http://www.w3.org/2000/svg">
<path d="M30.7048 7.69287V25.5905" stroke="#4DD6CB" stroke-width="3" stroke-miterlimit="10"/>
<path d="M15.6526 29.1289V7.69287" stroke="#009AFF" stroke-width="3" stroke-miterlimit="10"/>
<path d="M30.7038 7.69287H15.6526" stroke="#E65907" stroke-width="3" stroke-miterlimit="10" stroke-linecap="square"/>
<path d="M27.5262 28.5402C29.2818 28.5402 30.705 27.117 30.705 25.3614C30.705 23.6058 29.2818 22.1826 27.5262 22.1826C25.7706 22.1826 24.3474 23.6058 24.3474 25.3614C24.3474 27.117 25.7706 28.5402 27.5262 28.5402Z" stroke="#009AFF" stroke-width="3" stroke-miterlimit="10"/>
<path d="M12.474 32.3078C14.2296 32.3078 15.6528 30.8846 15.6528 29.129C15.6528 27.3734 14.2296 25.9502 12.474 25.9502C10.7184 25.9502 9.29517 27.3734 9.29517 29.129C9.29517 30.8846 10.7184 32.3078 12.474 32.3078Z" stroke="#4DD6CB" stroke-width="3" stroke-miterlimit="10"/>
</svg>
