<svg width="40" height="40" viewBox="0 0 40 40" fill="none" xmlns="http://www.w3.org/2000/svg">
<path d="M24.3549 15.8085C24.3549 18.8965 22.4049 20.5433 19.9997 20.5433C17.5945 20.5433 15.6445 18.8965 15.6445 15.8085C15.6445 11.9685 19.9997 6.32251 19.9997 6.32251C19.9997 6.32251 24.3549 11.9689 24.3549 15.8085Z" stroke="#009AFF" stroke-width="3" stroke-miterlimit="10" stroke-linecap="square"/>
<path d="M20 33.3647V31.8963C20 27.2735 15.2884 23.5259 10.6656 23.5259H8.89478" stroke="#E65907" stroke-width="3" stroke-miterlimit="10" stroke-linecap="square"/>
<path d="M20 33.3647V31.8963C20 27.2735 24.7116 23.5259 29.3344 23.5259H31.1052" stroke="#4DD6CB" stroke-width="3" stroke-miterlimit="10" stroke-linecap="square"/>
<path d="M8.89478 23.5259V24.6115C8.89478 30.1111 13.618 34.5715 20 34.5715C26.382 34.5715 31.1052 30.1127 31.1052 24.6115V23.5259" stroke="#009AFF" stroke-width="3" stroke-miterlimit="10" stroke-linecap="square"/>
<path d="M30.8708 23.5259H31.1052" stroke="#4DD6CB" stroke-width="3.33333" stroke-miterlimit="10" stroke-linecap="square"/>
<path d="M8.89478 23.5259H9.12918" stroke="#E65907" stroke-width="3.33333" stroke-miterlimit="10" stroke-linecap="square"/>
</svg>
