<svg width="24" height="24" viewBox="0 0 24 24" fill="none" xmlns="http://www.w3.org/2000/svg">
<path d="M20.0963 5.41926C21.0405 5.41926 21.806 4.65383 21.806 3.70963C21.806 2.76543 21.0405 2 20.0963 2C19.1521 2 18.3867 2.76543 18.3867 3.70963C18.3867 4.65383 19.1521 5.41926 20.0963 5.41926Z" fill="#004077"/>
<path d="M15.0152 5.23047H3V18.5874H6.34423V14.2419H12.7524L15.6761 18.5874H19.4208L16.1967 14.2218C17.198 14.0617 17.9189 13.6812 18.3595 13.0804C18.8 12.4797 19.0203 11.5184 19.0203 10.2368V9.23551C19.0203 8.47457 18.9402 7.87381 18.8 7.41321C18.6598 6.95267 18.4195 6.55211 18.0791 6.19167C17.7187 5.85126 17.3182 5.61094 16.8375 5.45075C16.3569 5.31054 15.7561 5.23047 15.0152 5.23047ZM14.4746 11.2981H6.34423V8.17421H14.4746C14.9351 8.17421 15.2555 8.25428 15.4157 8.3945C15.5759 8.53466 15.6761 8.795 15.6761 9.17548V10.2969C15.6761 10.6974 15.5759 10.9577 15.4157 11.0979C15.2555 11.2381 14.9351 11.2981 14.4746 11.2981Z" fill="#004077"/>
</svg>
